<svg viewBox="0 0 320 200" xmlns="http://www.w3.org/2000/svg">
  <rect width="320" height="200" fill="#FAF6F0"/>
  <rect x="110" y="50" width="100" height="105" rx="6" fill="#FAF6F0" stroke="#2C3E50" stroke-width="2.5"/>
  <rect x="110" y="50" width="100" height="22" rx="6" fill="#E8A87C"/>
  <rect x="110" y="65" width="100" height="7" fill="#E8A87C"/>
  <line x1="130" y1="45" x2="130" y2="60" stroke="#2C3E50" stroke-width="3" stroke-linecap="round"/>
  <line x1="190" y1="45" x2="190" y2="60" stroke="#2C3E50" stroke-width="3" stroke-linecap="round"/>
  <g font-family="sans-serif" font-size="9" fill="#2C3E50" text-anchor="middle">
    <text x="125" y="92">M</text><text x="143" y="92">T</text><text x="160" y="92">W</text>
    <text x="177" y="92">T</text><text x="195" y="92">F</text>
  </g>
  <g fill="#7B9EA8">
    <circle cx="125" cy="108" r="2"/><circle cx="143" cy="108" r="2"/><circle cx="160" cy="108" r="2"/>
    <circle cx="177" cy="108" r="2"/><circle cx="195" cy="108" r="2"/>
    <circle cx="125" cy="125" r="2"/><circle cx="143" cy="125" r="2"/>
  </g>
  <circle cx="160" cy="125" r="8" fill="#E8A87C"/>
  <text x="160" y="129" font-family="sans-serif" font-size="9" fill="#FAF6F0" text-anchor="middle" font-weight="700">★</text>
  <g fill="#7B9EA8">
    <circle cx="177" cy="125" r="2"/><circle cx="195" cy="125" r="2"/>
    <circle cx="125" cy="142" r="2"/><circle cx="143" cy="142" r="2"/>
    <circle cx="160" cy="142" r="2"/><circle cx="177" cy="142" r="2"/><circle cx="195" cy="142" r="2"/>
  </g>
</svg>
