<svg viewBox="0 0 320 200" xmlns="http://www.w3.org/2000/svg">
  <defs>
    <linearGradient id="bgBird" x1="0" x2="0" y1="0" y2="1">
      <stop offset="0%" stop-color="#FCE8E0"/>
      <stop offset="100%" stop-color="#C9DAC4"/>
    </linearGradient>
  </defs>
  <rect width="320" height="200" fill="url(#bgBird)"/>
  <path d="M 60,90 Q 80,75 105,85 Q 120,75 135,90 Q 120,100 105,95 Q 95,108 80,100 Q 65,105 60,90 Z" fill="#E8A87C" stroke="#C77B5A" stroke-width="2"/>
  <path d="M 80,82 Q 95,68 115,75" stroke="#C77B5A" stroke-width="2" fill="none"/>
  <circle cx="125" cy="88" r="2" fill="#2C3E50"/>
  <path d="M 132,90 L 142,87 L 132,93 Z" fill="#C77B5A"/>
  <path d="M 175,120 Q 195,105 220,115 Q 235,105 250,120 Q 235,130 220,125 Q 210,138 195,130 Q 180,135 175,120 Z" fill="#7B9EA8" stroke="#5A7F8A" stroke-width="2"/>
  <path d="M 195,112 Q 210,98 230,105" stroke="#5A7F8A" stroke-width="2" fill="none"/>
  <circle cx="240" cy="118" r="2" fill="#2C3E50"/>
  <path d="M 247,120 L 257,117 L 247,123 Z" fill="#5A7F8A"/>
  <path d="M 135,95 Q 155,105 175,115" stroke="#FAF6F0" stroke-width="2" fill="none" stroke-dasharray="3,4" opacity="0.7"/>
  <g fill="#FAF6F0" opacity="0.6">
    <ellipse cx="40" cy="50" rx="12" ry="4"/>
    <ellipse cx="270" cy="45" rx="14" ry="5"/>
    <ellipse cx="290" cy="65" rx="10" ry="4"/>
  </g>
</svg>
